mtllib ./fence.mtl
g Fence no-detach
v 0 0 0
v 0.1864176 -0.0005402565 -0.0724442
v -0.002672195 1.495136 0.008045197
v 0.1755667 1.496383 -0.08266997
v 0.1864176 -0.0005402565 -0.0724442
v 0.2588644 0 0.1617861
v 0.1755667 1.496383 -0.08266997
v 0.2661552 1.504842 0.1432505
v 0.2588644 0 0.1617861
v 0.07244682 0.0005402565 0.2342303
v 0.2661552 1.504842 0.1432505
v 0.08791733 1.503595 0.2339652
v 0.07244682 0.0005402565 0.2342303
v 0 0 0
v 0.08791733 1.503595 0.2339652
v -0.002672195 1.495136 0.008045197
v -0.002672195 1.495136 0.008045197
v 0.1755667 1.496383 -0.08266997
v 0.08791733 1.503595 0.2339652
v 0.2661552 1.504842 0.1432505
v 0.07244682 0.0005402565 0.2342303
v 0.2588644 0 0.1617861
v 0 0 0
v 0.1864176 -0.0005402565 -0.0724442
v 0.9057606 0.9765856 1.787146
v 0.9040581 1.176499 1.781497
v 0.225038 0.9232454 0.1044869
v 0.2233363 1.123158 0.09883845
v 0.9040581 1.176499 1.781497
v 0.712986 1.177014 1.855212
v 0.2233363 1.123158 0.09883845
v 0.05536842 1.123674 0.1633899
v 0.712986 1.177014 1.855212
v 0.7146111 0.9771013 1.860883
v 0.05536842 1.123674 0.1633899
v 0.05699158 0.9237614 0.1690612
v 0.7146111 0.9771013 1.860883
v 0.9057606 0.9765856 1.787146
v 0.05699158 0.9237614 0.1690612
v 0.225038 0.9232454 0.1044869
v 0.225038 0.9232454 0.1044869
v 0.2233363 1.123158 0.09883845
v 0.05699158 0.9237614 0.1690612
v 0.05536842 1.123674 0.1633899
v 0.7146111 0.9771013 1.860883
v 0.712986 1.177014 1.855212
v 0.9057606 0.9765856 1.787146
v 0.9040581 1.176499 1.781497
v 0.9194765 0.400775 1.793149
v 0.9178267 0.60077 1.794148
v 0.2547131 0.412411 0.1005681
v 0.2556124 0.612406 0.1015673
v 0.9178267 0.60077 1.794148
v 0.7289257 0.6012859 1.863293
v 0.2556124 0.612406 0.1015673
v 0.07120132 0.612922 0.1707118
v 0.7289257 0.6012859 1.863293
v 0.7279587 0.4012907 1.862293
v 0.07120132 0.612922 0.1707118
v 0.07023239 0.4129267 0.1697125
v 0.7279587 0.4012907 1.862293
v 0.9194765 0.400775 1.793149
v 0.07023239 0.4129267 0.1697125
v 0.2547131 0.412411 0.1005681
v 0.2547131 0.412411 0.1005681
v 0.2556124 0.612406 0.1015673
v 0.07023239 0.4129267 0.1697125
v 0.07120132 0.612922 0.1707118
v 0.7279587 0.4012907 1.862293
v 0.7289257 0.6012859 1.863293
v 0.9194765 0.400775 1.793149
v 0.9178267 0.60077 1.794148
v 1.699887 1.015573 3.796476
v 1.686472 1.214999 3.803503
v 1.522479 1.001208 3.865462
v 1.509064 1.200633 3.872489
v 1.693429 0.4647987 3.800454
v 1.693737 0.6647973 3.799754
v 1.515174 0.4653156 3.869726
v 1.515482 0.665314 3.869027
v 1.438018 0.00999999 3.663745
v 1.624435 0.009459734 3.5913
v 1.440569 1.45537 3.658565
v 1.626362 1.471519 3.586314
v 1.624435 0.009459734 3.5913
v 1.696882 0.00999999 3.814362
v 1.626362 1.471519 3.586314
v 1.698808 1.472059 3.809375
v 1.696882 0.00999999 3.814362
v 1.510465 0.01054025 3.886806
v 1.698808 1.472059 3.809375
v 1.513014 1.45591 3.881625
v 1.510465 0.01054025 3.886806
v 1.438018 0.00999999 3.663745
v 1.513014 1.45591 3.881625
v 1.440569 1.45537 3.658565
v 1.440569 1.45537 3.658565
v 1.626362 1.471519 3.586314
v 1.513014 1.45591 3.881625
v 1.698808 1.472059 3.809375
v 1.510465 0.01054025 3.886806
v 1.696882 0.00999999 3.814362
v 1.438018 0.00999999 3.663745
v 1.624435 0.009459734 3.5913
v 0.7099543 0.00999999 1.826893
v 0.8963718 0.009459734 1.754449
v 0.7131338 1.483065 1.828274
v 0.89676 1.471005 1.749943
v 0.8963718 0.009459734 1.754449
v 0.9688177 0.00999999 1.940866
v 0.89676 1.471005 1.749943
v 0.9700794 1.421808 1.929397
v 0.9688177 0.00999999 1.940866
v 0.7824001 0.01054025 2.01331
v 0.9700794 1.421808 1.929397
v 0.7864542 1.433867 2.007728
v 0.7824001 0.01054025 2.01331
v 0.7099543 0.00999999 1.826893
v 0.7864542 1.433867 2.007728
v 0.7131338 1.483065 1.828274
v 0.7131338 1.483065 1.828274
v 0.89676 1.471005 1.749943
v 0.7864542 1.433867 2.007728
v 0.9700794 1.421808 1.929397
v 0.7824001 0.01054025 2.01331
v 0.9688177 0.00999999 1.940866
v 0.7099543 0.00999999 1.826893
v 0.8963718 0.009459734 1.754449
v 1.60564 0.4188683 3.63189
v 1.628089 0.6151001 3.613313
v 0.9461393 0.3721113 1.935171
v 0.9604778 0.5683432 1.916595
v 1.628089 0.6151001 3.613313
v 1.439938 0.6516528 3.680315
v 0.9604778 0.5683432 1.916595
v 0.7804365 0.6048956 1.983596
v 1.439938 0.6516528 3.680315
v 1.427801 0.4554207 3.698892
v 0.7804365 0.6048956 1.983596
v 0.7679253 0.4086637 2.002172
v 1.427801 0.4554207 3.698892
v 1.60564 0.4188683 3.63189
v 0.7679253 0.4086637 2.002172
v 0.9461393 0.3721113 1.935171
v 0.9461393 0.3721113 1.935171
v 0.9604778 0.5683432 1.916595
v 0.7679253 0.4086637 2.002172
v 0.7804365 0.6048956 1.983596
v 1.427801 0.4554207 3.698892
v 1.439938 0.6516528 3.680315
v 1.60564 0.4188683 3.63189
v 1.628089 0.6151001 3.613313
v 1.621743 0.9900247 3.618555
v 1.622247 1.190024 3.618359
v 0.963975 0.9900247 1.92595
v 0.9644785 1.190024 1.925755
v 1.622247 1.190024 3.618359
v 1.440387 1.19054 3.687504
v 0.9644785 1.190024 1.925755
v 0.7766228 1.19054 1.994899
v 1.440387 1.19054 3.687504
v 1.437469 0.9905405 3.6877
v 0.7766228 1.19054 1.994899
v 0.7761183 0.9905405 1.995095
v 1.437469 0.9905405 3.6877
v 1.621743 0.9900247 3.618555
v 0.7761183 0.9905405 1.995095
v 0.963975 0.9900247 1.92595
v 0.963975 0.9900247 1.92595
v 0.9644785 1.190024 1.925755
v 0.7761183 0.9905405 1.995095
v 0.7766228 1.19054 1.994899
v 1.437469 0.9905405 3.6877
v 1.440387 1.19054 3.687504
v 1.621743 0.9900247 3.618555
v 1.622247 1.190024 3.618359

vn -0.362208 0.00436812 -0.9320871
vn -0.4084099 -0.00251111 -0.9127951
vn -0.4084099 -0.00251111 -0.9127951
vn -0.4535133 -0.009375392 -0.8912002
vn 0.9553323 0.004906448 -0.2954932
vn 0.9425959 -0.00208163 -0.3339292
vn 0.9425959 -0.00208163 -0.3339292
vn 0.9282433 -0.009077616 -0.3718629
vn 0.3622298 0.009725231 0.9320381
vn 0.4084095 0.002614872 0.912795
vn 0.4084095 0.002614872 0.912795
vn 0.4536057 -0.004511635 0.891191
vn -0.9553067 0.009884806 0.2954511
vn -0.9425991 0.003157177 0.3339116
vn -0.9425991 0.003157177 0.3339116
vn -0.9281089 -0.003662036 0.3722908
vn -0.02162461 0.9993528 -0.02874917
vn -0.02162463 0.9993528 -0.02874917
vn -0.02162463 0.9993528 -0.02874917
vn -0.02162465 0.9993528 -0.02874918
vn -0.001786958 -0.9999943 0.002859207
vn -0.001786958 -0.9999943 0.002859207
vn -0.001786958 -0.9999943 0.002859207
vn -0.001786958 -0.9999943 0.002859207
vn 0.9270409 -0.002699049 -0.3749505
vn 0.9270411 -0.002701355 -0.3749503
vn 0.9270411 -0.002701355 -0.3749503
vn 0.9270411 -0.002703661 -0.37495
vn -0.008240441 0.999564 -0.02835245
vn -0.00806585 0.9995641 -0.02840112
vn -0.00806585 0.9995641 -0.02840112
vn -0.007867167 0.9995641 -0.0284565
vn -0.9320883 0.002698928 0.3622211
vn -0.9320882 0.002703265 0.3622214
vn -0.9320882 0.002703265 0.3622214
vn -0.932088 0.002707602 0.3622218
vn 0.00822667 -0.9995652 0.02831666
vn 0.008065342 -0.9995642 0.02840125
vn 0.008065342 -0.9995642 0.02840125
vn 0.007881714 -0.9995627 0.02849752
vn -0.3586171 -0.02941477 -0.9330212
vn -0.3586352 -0.02939752 -0.9330148
vn -0.3586352 -0.02939752 -0.9330148
vn -0.3586532 -0.02938026 -0.9330084
vn 0.3598213 0.02938036 0.9325585
vn 0.3598362 0.02939693 0.9325522
vn 0.3598362 0.02939693 0.9325522
vn 0.3598513 0.02941352 0.932546
vn 0.9307652 0.009503976 -0.3654939
vn 0.9310257 0.003570073 -0.364936
vn 0.9310257 0.003570073 -0.364936
vn 0.9312533 -0.002367071 -0.3643647
vn 0.004590173 0.9999766 0.005078675
vn 0.004640383 0.9999764 0.005065184
vn 0.004640383 0.9999764 0.005065184
vn 0.004691703 0.9999763 0.005051394
vn -0.9320883 0.002697152 0.3622211
vn -0.9320881 0.002701718 0.3622216
vn -0.9320881 0.002701718 0.3622216
vn -0.9320879 0.002706285 0.3622221
vn -0.004537927 -0.9999766 -0.005111149
vn -0.004609156 -0.9999765 -0.005073886
vn -0.004609156 -0.9999765 -0.005073886
vn -0.004682656 -0.9999764 -0.005035435
vn -0.3509421 0.006256385 -0.9363763
vn -0.3509999 0.006317627 -0.9363542
vn -0.3509999 0.006317627 -0.9363542
vn -0.3510577 0.006378888 -0.9363321
vn 0.3395575 -0.006341069 0.9405639
vn 0.3416314 -0.004111774 0.939825
vn 0.3416314 -0.004111774 0.939825
vn 0.3437272 -0.001855066 0.9390677
vn -0.362997 0.008411114 -0.9317523
vn -0.362997 0.008411117 -0.9317523
vn -0.362997 0.008411117 -0.9317523
vn -0.362997 0.008411119 -0.9317523
vn -0.3622274 -0.002703296 -0.9320858
vn -0.362228 -0.002702739 -0.9320856
vn -0.362228 -0.002702739 -0.9320856
vn -0.3622285 -0.002702182 -0.9320854
vn -0.362229 -0.002701359 -0.9320853
vn -0.3622297 -0.002701457 -0.9320849
vn -0.3622297 -0.002701457 -0.9320849
vn -0.3622304 -0.002701555 -0.9320847
vn 0.9510934 -0.002306642 -0.308895
vn 0.9510939 -0.002306326 -0.3088931
vn 0.9510939 -0.002306326 -0.3088931
vn 0.9510946 -0.00230601 -0.3088913
vn 0.3622279 0.002701797 0.9320856
vn 0.3622273 0.002701896 0.9320859
vn 0.3622273 0.002701896 0.9320859
vn 0.3622266 0.002701997 0.9320862
vn -0.9510924 0.002784583 0.3088938
vn -0.9510936 0.002785175 0.3088903
vn -0.9510936 0.002785175 0.3088903
vn -0.9510947 0.002785766 0.3088868
vn -0.07775269 0.996711 0.02283769
vn -0.07775249 0.996711 0.02283776
vn -0.07775249 0.996711 0.02283776
vn -0.0777523 0.9967111 0.02283784
vn -0.001737555 -0.999994 0.002986332
vn -0.001737554 -0.9999942 0.00298633
vn -0.001737554 -0.9999942 0.00298633
vn -0.001737553 -0.9999942 0.002986328
vn -0.3622178 0.001655619 -0.9320921
vn -0.3773484 -0.0005274584 -0.9260712
vn -0.3773484 -0.0005274584 -0.9260712
vn -0.3925214 -0.002731417 -0.9197388
vn 0.932089 -0.001364323 -0.3622267
vn 0.9288647 -0.002592749 -0.3704101
vn 0.9288647 -0.002592749 -0.3704101
vn 0.9253336 -0.003906935 -0.379134
vn 0.3622312 0.007248072 0.9320601
vn 0.3774709 0.004861584 0.9260086
vn 0.3774709 0.004861584 0.9260086
vn 0.392509 0.002489282 0.9197448
vn -0.9320849 0.004075489 0.3622173
vn -0.928851 0.002857119 0.3704425
vn -0.928851 0.002857119 0.3704425
vn -0.9255551 0.001642847 0.3786092
vn 0.150447 0.9673955 0.2037441
vn 0.1504473 0.9673954 0.2037442
vn 0.1504473 0.9673954 0.2037442
vn 0.1504477 0.9673954 0.2037443
vn -0.001539365 -0.9999927 0.003496317
vn -0.001539365 -0.9999927 0.003496317
vn -0.001539365 -0.9999927 0.003496317
vn -0.001539365 -0.9999927 0.003496317
vn 0.9242597 -0.13938 -0.3554114
vn 0.9256262 -0.120717 -0.358669
vn 0.9256262 -0.120717 -0.358669
vn 0.9266611 -0.1019617 -0.3618053
vn 0.1590695 0.9831855 -0.08968333
vn 0.1621616 0.9826057 -0.09049653
vn 0.1621616 0.9826057 -0.09049653
vn 0.1653745 0.9819919 -0.09134095
vn -0.9290129 0.09140362 0.3585811
vn -0.9289106 0.09228783 0.3586195
vn -0.9289106 0.09228783 0.3586195
vn -0.9288077 0.09317178 0.3586577
vn -0.167088 -0.9816371 0.09203395
vn -0.166946 -0.9816681 0.09196111
vn -0.166946 -0.9816681 0.09196111
vn -0.1668042 -0.981699 0.09188842
vn -0.3622824 -0.06157257 -0.9300324
vn -0.3609528 -0.06338765 -0.9304274
vn -0.3609528 -0.06338765 -0.9304274
vn -0.359631 -0.06518911 -0.9308147
vn 0.3635627 0.06548718 0.9292651
vn 0.3533179 0.05726182 0.9337492
vn 0.3533179 0.05726182 0.9337492
vn 0.3435737 0.04947856 0.9378214
vn 0.9320881 -0.002700807 -0.3622216
vn 0.9320881 -0.002701085 -0.3622216
vn 0.9320881 -0.002701085 -0.3622216
vn 0.9320881 -0.002701364 -0.3622216
vn 0.002471212 0.9999966 -0.0009603451
vn 0.002434813 0.9999965 -0.0009505127
vn 0.002434813 0.9999965 -0.0009505127
vn 0.002399472 0.9999966 -0.0009409658
vn -0.9308832 0.01394049 0.3650508
vn -0.9311669 0.008325158 0.3644981
vn -0.9311669 0.008325158 0.3644981
vn -0.931421 0.002706318 0.3639334
vn -0.002441256 -0.9999966 0.0009538704
vn -0.002421569 -0.9999967 0.0009436157
vn -0.002421569 -0.9999967 0.0009436157
vn -0.002402197 -0.9999967 0.0009335252
vn -0.3454157 -4.881546E-05 -0.9384499
vn -0.345416 -4.855415E-05 -0.9384497
vn -0.345416 -4.855415E-05 -0.9384497
vn -0.3454162 -4.829284E-05 -0.9384496
vn 0.3512959 -0.004208414 0.936255
vn 0.3533307 -0.002106992 0.935496
vn 0.3533307 -0.002106992 0.935496
vn 0.355386 1.893169E-05 0.9347196

vt 0.443701 1.192093E-07
vt 0.243701 1.192093E-07
vt 0.4531461 1.49513
vt 0.2541559 1.496827
vt 0.6995874 -1.192093E-07
vt 0.4995874 -1.192093E-07
vt 0.7090052 1.496968
vt 0.5101577 1.504805
vt 1.060416 0
vt 0.8604163 0
vt 1.069861 1.504945
vt 0.8708712 1.502965
vt 0.5899219 -5.960464E-08
vt 0.3899219 -5.960464E-08
vt 0.5993397 1.503105
vt 0.4004922 1.494991
vt 7.450581E-09 0.1989972
vt 0.1989972 0.2190003
vt 0.02000316 0
vt 0.2190003 0.02000315
vt 0.2 0
vt 0 0
vt 0.2 0.2
vt 0 0.2
vt 0.5289966 0
vt 0.3289967 0
vt 0.5289968 1.815921
vt 0.3289968 1.815921
vt 0.7514026 0
vt 0.5605124 0
vt 0.7514026 1.815921
vt 0.5605125 1.815921
vt 1.065139 0
vt 0.8651392 0
vt 1.065139 1.815921
vt 0.8651391 1.815921
vt 0.3005555 0
vt 0.1096653 0
vt 0.3005554 1.815921
vt 0.1096654 1.815921
vt 0 0.1908901
vt 0.1999999 0.1908901
vt 0 0
vt 0.1999999 0
vt 0.2 0
vt 0 0
vt 0.2 0.1908902
vt 0 0.1908902
vt 0.8701783 0
vt 0.6701783 0
vt 0.8701784 1.815921
vt 0.6701785 1.815921
vt 0.3858509 0
vt 0.1949607 0
vt 0.3858508 1.815921
vt 0.1949608 1.815921
vt 0.2852957 0
vt 0.08529568 0
vt 0.2852955 1.815921
vt 0.08529556 1.815921
vt 0.5442567 0
vt 0.3533665 0
vt 0.5442566 1.815921
vt 0.3533665 1.815921
vt 0.2802562 0.1908901
vt 0.4802561 0.1908901
vt 0.2802562 5.960464E-08
vt 0.4802561 5.960464E-08
vt 0.2 0
vt 0 0
vt 0.2 0.1908902
vt 0 0.1908902
vt 0.6421525 0.19089
vt 0.8421525 0.19089
vt 0.6421525 -3.72529E-08
vt 0.8421525 -3.72529E-08
vt 0 0.1912431
vt 0.1999999 0.1912431
vt 0 0
vt 0.1999999 0
vt 0.4729148 0
vt 0.2729148 0
vt 0.4725661 1.445381
vt 0.2732635 1.462069
vt 0.9659222 0
vt 0.7659222 0
vt 0.9659222 1.462069
vt 0.7659222 1.462069
vt 0.5961667 0
vt 0.3961667 0
vt 0.5958179 1.462069
vt 0.3965154 1.445381
vt 0.7546332 0
vt 0.5546333 0
vt 0.7546332 1.445381
vt 0.5546333 1.445381
vt 0.9499166 -0.07244179
vt 0.7916732 0.04986543
vt 1.072224 0.08580152
vt 0.9139805 0.2081087
vt 0.5081296 0
vt 0.3081296 0
vt 0.5081296 0.2
vt 0.3081296 0.2
vt 0.4680712 0
vt 0.2680711 0
vt 0.4695881 1.473068
vt 0.270026 1.461537
vt 0.8945481 -5.960464E-08
vt 0.6945481 -5.960464E-08
vt 0.8946588 1.461552
vt 0.7009667 1.411836
vt 0.8458079 -1.192093E-07
vt 0.6458079 -1.192093E-07
vt 0.8473249 1.411854
vt 0.6477628 1.423327
vt 0.6630319 -5.960464E-08
vt 0.4630319 -5.960464E-08
vt 0.6631427 1.423343
vt 0.4694505 1.473051
vt 1.490116E-08 0.4679577
vt 0.1998865 0.4746958
vt 0.006738141 0.2680712
vt 0.2066246 0.2748094
vt 0.2000002 0.5605125
vt 1.639128E-07 0.5605125
vt 0.2000002 0.7605125
vt 1.639128E-07 0.7605125
vt 0.7970679 0
vt 0.5970679 0
vt 0.797068 1.820984
vt 0.5970681 1.820984
vt 0.629552 -1.192093E-07
vt 0.4386619 -1.192093E-07
vt 0.629552 1.820984
vt 0.4386619 1.820984
vt 0.3949611 -1.192093E-07
vt 0.1949612 -1.192093E-07
vt 0.3949609 1.820984
vt 0.194961 1.820984
vt 0.5808119 0
vt 0.3899217 0
vt 0.5808117 1.820984
vt 0.3899217 1.820984
vt 0 0.1908901
vt 0.1999999 0.1908901
vt 0 0
vt 0.1999999 0
vt 0.2 0
vt 0 0
vt 0.2 0.1908902
vt 0 0.1908902
vt 0.6639552 -0.5911688
vt 0.4639552 -0.5911688
vt 0.6639553 1.224752
vt 0.4639553 1.224752
vt 0.9541712 0.2843595
vt 0.763281 0.2843595
vt 0.9541712 2.10028
vt 0.7632811 2.10028
vt 0.4170114 -0.9877756
vt 0.2170115 -0.9877756
vt 0.4170113 0.8281453
vt 0.2170113 0.8281453
vt 0.7670925 0.09728086
vt 0.5762023 0.09728086
vt 0.7670924 1.913202
vt 0.5762024 1.913202
vt 0.7857304 0.1908901
vt 0.9857304 0.1908901
vt 0.7857304 4.470348E-08
vt 0.9857304 4.470348E-08
vt 0.5816406 0.4714383
vt 0.3816406 0.4714383
vt 0.5816406 0.6623285
vt 0.3816406 0.6623285

g WoodLog Plank
usemtl WoodLog Plank
usemap WoodLog Plank
f 2/2/2 1/1/1 3/3/3
f 4/4/4 2/2/2 3/3/3
f 6/6/6 5/5/5 7/7/7
f 8/8/8 6/6/6 7/7/7
f 10/10/10 9/9/9 11/11/11
f 12/12/12 10/10/10 11/11/11
f 14/14/14 13/13/13 15/15/15
f 16/16/16 14/14/14 15/15/15
f 18/18/18 17/17/17 19/19/19
f 20/20/20 18/18/18 19/19/19
f 22/22/22 21/21/21 23/23/23
f 24/24/24 22/22/22 23/23/23
f 26/26/26 25/25/25 27/27/27
f 28/28/28 26/26/26 27/27/27
f 30/30/30 29/29/29 31/31/31
f 32/32/32 30/30/30 31/31/31
f 34/34/34 33/33/33 35/35/35
f 36/36/36 34/34/34 35/35/35
f 38/38/38 37/37/37 39/39/39
f 40/40/40 38/38/38 39/39/39
f 42/42/42 41/41/41 43/43/43
f 44/44/44 42/42/42 43/43/43
f 46/46/46 45/45/45 47/47/47
f 48/48/48 46/46/46 47/47/47
f 50/50/50 49/49/49 51/51/51
f 52/52/52 50/50/50 51/51/51
f 54/54/54 53/53/53 55/55/55
f 56/56/56 54/54/54 55/55/55
f 58/58/58 57/57/57 59/59/59
f 60/60/60 58/58/58 59/59/59
f 62/62/62 61/61/61 63/63/63
f 64/64/64 62/62/62 63/63/63
f 66/66/66 65/65/65 67/67/67
f 68/68/68 66/66/66 67/67/67
f 70/70/70 69/69/69 71/71/71
f 72/72/72 70/70/70 71/71/71
f 74/74/74 73/73/73 75/75/75
f 76/76/76 74/74/74 75/75/75
f 78/78/78 77/77/77 79/79/79
f 80/80/80 78/78/78 79/79/79
f 82/82/82 81/81/81 83/83/83
f 84/84/84 82/82/82 83/83/83
f 86/86/86 85/85/85 87/87/87
f 88/88/88 86/86/86 87/87/87
f 90/90/90 89/89/89 91/91/91
f 92/92/92 90/90/90 91/91/91
f 94/94/94 93/93/93 95/95/95
f 96/96/96 94/94/94 95/95/95
f 98/98/98 97/97/97 99/99/99
f 100/100/100 98/98/98 99/99/99
f 102/102/102 101/101/101 103/103/103
f 104/104/104 102/102/102 103/103/103
f 106/106/106 105/105/105 107/107/107
f 108/108/108 106/106/106 107/107/107
f 110/110/110 109/109/109 111/111/111
f 112/112/112 110/110/110 111/111/111
f 114/114/114 113/113/113 115/115/115
f 116/116/116 114/114/114 115/115/115
f 118/118/118 117/117/117 119/119/119
f 120/120/120 118/118/118 119/119/119
f 122/122/122 121/121/121 123/123/123
f 124/124/124 122/122/122 123/123/123
f 126/126/126 125/125/125 127/127/127
f 128/128/128 126/126/126 127/127/127
f 130/130/130 129/129/129 131/131/131
f 132/132/132 130/130/130 131/131/131
f 134/134/134 133/133/133 135/135/135
f 136/136/136 134/134/134 135/135/135
f 138/138/138 137/137/137 139/139/139
f 140/140/140 138/138/138 139/139/139
f 142/142/142 141/141/141 143/143/143
f 144/144/144 142/142/142 143/143/143
f 146/146/146 145/145/145 147/147/147
f 148/148/148 146/146/146 147/147/147
f 150/150/150 149/149/149 151/151/151
f 152/152/152 150/150/150 151/151/151
f 154/154/154 153/153/153 155/155/155
f 156/156/156 154/154/154 155/155/155
f 158/158/158 157/157/157 159/159/159
f 160/160/160 158/158/158 159/159/159
f 162/162/162 161/161/161 163/163/163
f 164/164/164 162/162/162 163/163/163
f 166/166/166 165/165/165 167/167/167
f 168/168/168 166/166/166 167/167/167
f 170/170/170 169/169/169 171/171/171
f 172/172/172 170/170/170 171/171/171
f 174/174/174 173/173/173 175/175/175
f 176/176/176 174/174/174 175/175/175
